<?xml version="1.0" standalone="no"?><!DOCTYPE svg PUBLIC "-//W3C//DTD SVG 1.1//EN" "http://www.w3.org/Graphics/SVG/1.1/DTD/svg11.dtd"><svg t="1594117698387" class="icon" viewBox="0 0 1024 1024" version="1.1" xmlns="http://www.w3.org/2000/svg" p-id="2117" width="16" height="16" xmlns:xlink="http://www.w3.org/1999/xlink"><defs><style type="text/css"></style></defs><path d="M 512.103 320.121 a 106.222 106.222 0 1 1 -75.507 31.3546 A 106.222 106.222 0 0 1 512.103 320.121 m 0 -63.989 a 170.851 170.851 0 1 0 120.939 49.9114 A 169.571 169.571 0 0 0 512.103 256.132 Z" fill="#1afa29" p-id="2118"></path><path d="M 805.173 124.315 a 407.61 407.61 0 0 0 -586.139 0 a 431.286 431.286 0 0 0 0 599.577 L 512.103 1024 l 293.07 -300.108 a 431.286 431.286 0 0 0 0 -599.577 Z m -44.1524 557.344 l -248.917 255.956 l -248.917 -255.956 a 365.377 365.377 0 0 1 0 -508.713 a 346.82 346.82 0 0 1 497.834 0 a 365.377 365.377 0 0 1 0 508.713 Z" fill="#1afa29" p-id="2119"></path></svg>